PathFileType	3	(X/Y/Z)	random_1__fused_aligned.trc
DataRate	CameraRate	NumFrames	NumMarkers	Units	OrigDataRate	OrigDataStartFrame	OrigNumFrames
100.0	100.0	15	19	mm	100.0	167	1870
Frame#	Time	pelvis			neck			head			hip_left			hip_right			knee_left			knee_right			ankle_left			ankle_right			heel_left			heel_right			toe_left			toe_right			shoulder_left			shoulder_right			elbow_left			elbow_right			wrist_left			wrist_right			
		X1	Y1	Z1	X2	Y2	Z2	X3	Y3	Z3	X4	Y4	Z4	X5	Y5	Z5	X6	Y6	Z6	X7	Y7	Z7	X8	Y8	Z8	X9	Y9	Z9	X10	Y10	Z10	X11	Y11	Z11	X12	Y12	Z12	X13	Y13	Z13	X14	Y14	Z14	X15	Y15	Z15	X16	Y16	Z16	X17	Y17	Z17	X18	Y18	Z18	X19	Y19	Z19	
167	1.66000	88.521908	948.761235	39.620320	115.873557	1520.850553	38.310892	129.738824	1666.751214	-62.725811	10.671887	950.650546	28.226282	166.372011	946.871929	51.014271	-29.872547	524.927658	-15.048520	201.819053	520.609215	12.503020	-68.204557	129.308006	59.852873	204.160100	120.653228	73.198179	-71.962039	83.730530	96.321167	195.413411	74.433714	108.981857	-49.037270	60.908796	-122.702181	242.447762	50.779191	-107.350860	-68.825423	1482.629052	35.872588	294.844458	1452.214798	72.152769	-153.717158	1235.562053	-105.964379	332.246456	1185.278032	-35.277446	-45.484308	1268.568345	-327.488461	262.303037	1281.157450	-258.615109
168	1.67000	89.632364	948.789601	39.909606	116.913081	1520.792546	39.091158	130.694508	1667.124488	-61.476885	11.776038	950.671255	28.560767	167.488729	946.907952	51.258370	-28.726082	524.995072	-14.703968	202.823301	520.650689	12.732123	-67.104037	129.387690	59.821646	205.146985	120.740581	73.138853	-70.868171	83.797990	96.285990	196.383765	74.515024	108.908152	-47.968054	60.980485	-122.827322	243.405492	50.868974	-107.448601	-67.950694	1482.547271	36.470294	296.205124	1451.801069	72.276350	-151.197809	1234.299055	-104.008667	332.385404	1183.908287	-35.240043	-40.364292	1267.118649	-324.563232	259.428539	1276.669955	-258.258220
169	1.68000	90.742819	948.817966	40.198892	117.952605	1520.734538	39.871425	131.650193	1667.497762	-60.227958	12.880190	950.691964	28.895253	168.605448	946.943975	51.502470	-27.579617	525.062485	-14.359415	203.827548	520.692164	12.961226	-66.003516	129.467375	59.790419	206.133870	120.827934	73.079527	-69.774302	83.865449	96.250813	197.354120	74.596335	108.834448	-46.898837	61.052173	-122.952463	244.363222	50.958756	-107.546341	-67.075966	1482.465489	37.068001	297.565791	1451.387340	72.399932	-148.678460	1233.036057	-102.052954	332.524352	1182.538542	-35.202639	-35.244276	1265.668952	-321.638004	256.554042	1272.182460	-257.901332
170	1.69000	91.853274	948.846332	40.488178	118.992128	1520.676531	40.651692	132.605877	1667.871036	-58.979032	13.984341	950.712673	29.229739	169.722166	946.979998	51.746569	-26.433153	525.129898	-14.014863	204.831796	520.733638	13.190330	-64.902996	129.547060	59.759192	207.120755	120.915287	73.020201	-68.680434	83.932909	96.215636	198.324474	74.677645	108.760744	-45.829621	61.123861	-123.077605	245.320951	51.048539	-107.644082	-66.201237	1482.383708	37.665708	298.926457	1450.973611	72.523514	-146.159111	1231.773060	-100.097241	332.663300	1181.168796	-35.165236	-30.124260	1264.219256	-318.712775	253.679544	1267.694966	-257.544443
171	1.70000	92.963730	948.874697	40.777464	120.031652	1520.618524	41.431958	133.561562	1668.244311	-57.730106	15.088493	950.733382	29.564224	170.838885	947.016021	51.990668	-25.286688	525.197312	-13.670311	205.836044	520.775113	13.419433	-63.802475	129.626744	59.727965	208.107639	121.002640	72.960875	-67.586565	84.000369	96.180459	199.294828	74.758955	108.687039	-44.760405	61.195549	-123.202746	246.278681	51.138322	-107.741822	-65.326509	1482.301926	38.263414	300.287124	1450.559883	72.647096	-143.639762	1230.510062	-98.141528	332.802248	1179.799051	-35.127833	-25.004245	1262.769559	-315.787547	250.805047	1263.207471	-257.187554
172	1.71000	94.074185	948.903063	41.066750	121.071176	1520.560517	42.212225	134.517246	1668.617585	-56.481179	16.192645	950.754091	29.898710	171.955603	947.052044	52.234767	-24.140223	525.264725	-13.325758	206.840291	520.816587	13.648536	-62.701955	129.706429	59.696738	209.094524	121.089994	72.901548	-66.492697	84.067828	96.145282	200.265182	74.840266	108.613335	-43.691188	61.267237	-123.327887	247.236411	51.228105	-107.839562	-64.451780	1482.220144	38.861121	301.647790	1450.146154	72.770678	-141.120413	1229.247064	-96.185815	332.941196	1178.429306	-35.090430	-19.884229	1261.319863	-312.862318	247.930549	1258.719976	-256.830666
173	1.72000	95.184641	948.931429	41.356036	122.110699	1520.502510	42.992492	135.472931	1668.990859	-55.232253	17.296796	950.774800	30.233196	173.072322	947.088067	52.478867	-22.993759	525.332139	-12.981206	207.844539	520.858062	13.877639	-61.601434	129.786114	59.665511	210.081409	121.177347	72.842222	-65.398829	84.135288	96.110106	201.235537	74.921576	108.539631	-42.621972	61.338926	-123.453028	248.194141	51.317887	-107.937303	-63.577051	1482.138363	39.458827	303.008457	1449.732425	72.894260	-138.601064	1227.984066	-94.230103	333.080144	1177.059561	-35.053027	-14.764213	1259.870166	-309.937090	245.056052	1254.232481	-256.473777
174	1.73000	96.295096	948.959794	41.645322	123.150223	1520.444503	43.772758	136.428615	1669.364134	-53.983326	18.400948	950.795509	30.567681	174.189040	947.124090	52.722966	-21.847294	525.399552	-12.636654	208.848786	520.899536	14.106743	-60.500914	129.865798	59.634284	211.068294	121.264700	72.782896	-64.304960	84.202748	96.074929	202.205891	75.002887	108.465927	-41.552756	61.410614	-123.578170	249.151870	51.407670	-108.035043	-62.702323	1482.056581	40.056534	304.369123	1449.318696	73.017841	-136.081715	1226.721068	-92.274390	333.219092	1175.689816	-35.015624	-9.644197	1258.420470	-307.011861	242.181555	1249.744986	-256.116888
175	1.74000	97.405552	948.988160	41.934608	124.189746	1520.386496	44.553025	137.384300	1669.737408	-52.734400	19.505099	950.816218	30.902167	175.305759	947.160113	52.967065	-20.700829	525.466966	-12.292101	209.853034	520.941011	14.335846	-59.400393	129.945483	59.603057	212.055179	121.352053	72.723570	-63.211092	84.270207	96.039752	203.176245	75.084197	108.392222	-40.483539	61.482302	-123.703311	250.109600	51.497453	-108.132784	-61.827594	1481.974799	40.654241	305.729790	1448.904968	73.141423	-133.562366	1225.458070	-90.318677	333.358040	1174.320070	-34.978221	-4.524181	1256.970773	-304.086633	239.307057	1245.257491	-255.760000
176	1.75000	98.516007	949.016525	42.223894	125.229270	1520.328489	45.333291	138.339985	1670.110682	-51.485473	20.609251	950.836927	31.236653	176.422477	947.196136	53.211164	-19.554365	525.534379	-11.947549	210.857282	520.982485	14.564949	-58.299873	130.025168	59.571830	213.042063	121.439406	72.664244	-62.117223	84.337667	96.004575	204.146600	75.165507	108.318518	-39.414323	61.553990	-123.828452	251.067330	51.587236	-108.230524	-60.952866	1481.893018	41.251947	307.090456	1448.491239	73.265005	-131.043017	1224.195073	-88.362964	333.496987	1172.950325	-34.940818	0.595834	1255.521077	-301.161404	236.432560	1240.769997	-255.403111
177	1.76000	99.626462	949.044891	42.513181	126.268794	1520.270482	46.113558	139.295669	1670.483957	-50.236547	21.713402	950.857636	31.571138	177.539196	947.232160	53.455264	-18.407900	525.601793	-11.602997	211.861529	521.023960	14.794052	-57.199352	130.104852	59.540603	214.028948	121.526760	72.604917	-61.023355	84.405127	95.969398	205.116954	75.246818	108.244814	-38.345107	61.625679	-123.953594	252.025059	51.677019	-108.328264	-60.078137	1481.811236	41.849654	308.451123	1448.077510	73.388587	-128.523668	1222.932075	-86.407251	333.635935	1171.580580	-34.903415	5.715850	1254.071380	-298.236176	233.558062	1236.282502	-255.046222
178	1.77000	100.104722	949.129249	42.859253	126.580811	1520.276568	46.763355	139.552960	1670.762222	-49.256229	22.190829	950.929495	31.931169	178.018321	947.329016	53.787375	-17.888073	525.669597	-11.355759	212.302910	521.114191	14.912841	-56.733707	130.155738	59.552428	214.431120	121.613495	72.514583	-60.591177	84.432372	95.976411	205.500900	75.324854	108.147305	-37.733526	61.724116	-123.965867	252.413397	51.738166	-108.416403	-59.919376	1481.715128	42.197293	309.011811	1448.033759	73.719621	-126.938514	1221.827207	-84.303769	333.619368	1171.014727	-34.089932	10.152966	1252.386916	-294.979712	231.129861	1232.017408	-253.777390
179	1.78000	100.582982	949.213607	43.205326	126.892829	1520.282654	47.413152	139.810251	1671.040488	-48.275911	22.668257	951.001353	32.291199	178.497446	947.425872	54.119486	-17.368245	525.737401	-11.108522	212.744290	521.204422	15.031630	-56.268063	130.206623	59.564252	214.833292	121.700231	72.424248	-60.158998	84.459617	95.983425	205.884845	75.402891	108.049797	-37.121945	61.822553	-123.978140	252.801734	51.799313	-108.504542	-59.760615	1481.619019	42.544933	309.572499	1447.990007	74.050656	-125.353360	1220.722340	-82.200286	333.602801	1170.448875	-33.276450	14.590082	1250.702453	-291.723247	228.701660	1227.752314	-252.508558
180	1.79000	101.061241	949.297966	43.551398	127.204846	1520.288740	48.062948	140.067542	1671.318754	-47.295593	23.145684	951.073212	32.651229	178.976572	947.522729	54.451597	-16.848418	525.805206	-10.861285	213.185671	521.294654	15.150419	-55.802418	130.257508	59.576077	215.235464	121.786967	72.333913	-59.726820	84.486862	95.990439	206.268790	75.480927	107.952288	-36.510364	61.920991	-123.990413	253.190071	51.860460	-108.592681	-59.601854	1481.522910	42.892573	310.133188	1447.946256	74.381690	-123.768206	1219.617473	-80.096803	333.586234	1169.883022	-32.462968	19.027199	1249.017989	-288.466783	226.273459	1223.487220	-251.239725
181	1.80000	101.539501	949.382324	43.897471	127.516864	1520.294826	48.712745	140.324833	1671.597020	-46.315275	23.623111	951.145071	33.011259	179.455697	947.619585	54.783708	-16.328591	525.873010	-10.614047	213.627051	521.384885	15.269208	-55.336774	130.308394	59.587901	215.637636	121.873702	72.243578	-59.294641	84.514107	95.997452	206.652736	75.558964	107.854780	-35.898783	62.019428	-124.002687	253.578408	51.921607	-108.680820	-59.443093	1481.426802	43.240212	310.693876	1447.902505	74.712724	-122.183053	1218.512605	-77.993321	333.569667	1169.317170	-31.649486	23.464315	1247.333525	-285.210318	223.845259	1219.222126	-249.970893
